<mxfile host="app.diagrams.net" modified="2024-04-01T06:18:20.106Z" agent="Mozilla/5.0 (Windows NT 10.0; Win64; x64) AppleWebKit/537.36 (KHTML, like Gecko) Chrome/123.0.0.0 Safari/537.36" etag="1kAR3kpBANIooFyCRT8R" version="24.2.1" type="github">
  <diagram name="Page-1" id="0783ab3e-0a74-02c8-0abd-f7b4e66b4bec">
    <mxGraphModel dx="936" dy="523" grid="1" gridSize="10" guides="1" tooltips="1" connect="1" arrows="1" fold="1" page="1" pageScale="1" pageWidth="850" pageHeight="1100" background="none" math="0" shadow="0">
      <root>
        <mxCell id="0" />
        <mxCell id="1" parent="0" />
        <mxCell id="1c1d494c118603dd-1" value="Pool" style="swimlane;html=1;childLayout=stackLayout;startSize=20;rounded=0;shadow=0;comic=0;labelBackgroundColor=none;strokeWidth=1;fontFamily=Verdana;fontSize=12;align=center;" parent="1" vertex="1">
          <mxGeometry x="50" y="20" width="764.5" height="990" as="geometry" />
        </mxCell>
        <mxCell id="1c1d494c118603dd-2" value="Lane 1" style="swimlane;html=1;startSize=20;" parent="1c1d494c118603dd-1" vertex="1">
          <mxGeometry y="20" width="264.5" height="970" as="geometry" />
        </mxCell>
        <mxCell id="uT_rV1728aCFQ6Up8vHc-67" style="edgeStyle=orthogonalEdgeStyle;rounded=0;orthogonalLoop=1;jettySize=auto;html=1;" edge="1" parent="1c1d494c118603dd-2" source="1c1d494c118603dd-7">
          <mxGeometry relative="1" as="geometry">
            <mxPoint x="150" y="500" as="targetPoint" />
          </mxGeometry>
        </mxCell>
        <mxCell id="1c1d494c118603dd-7" value="댓글 작성" style="rounded=1;whiteSpace=wrap;html=1;shadow=0;comic=0;labelBackgroundColor=none;strokeWidth=1;fontFamily=Verdana;fontSize=12;align=center;arcSize=50;" parent="1c1d494c118603dd-2" vertex="1">
          <mxGeometry x="97.75" y="350" width="104.5" height="30" as="geometry" />
        </mxCell>
        <mxCell id="uT_rV1728aCFQ6Up8vHc-27" value="Actor" style="shape=umlActor;verticalLabelPosition=bottom;verticalAlign=top;html=1;outlineConnect=0;" vertex="1" parent="1c1d494c118603dd-2">
          <mxGeometry x="135" y="230" width="30" height="60" as="geometry" />
        </mxCell>
        <mxCell id="uT_rV1728aCFQ6Up8vHc-34" value="" style="endArrow=classic;html=1;rounded=0;" edge="1" parent="1c1d494c118603dd-2">
          <mxGeometry width="50" height="50" relative="1" as="geometry">
            <mxPoint x="150" y="316" as="sourcePoint" />
            <mxPoint x="149.58" y="346" as="targetPoint" />
          </mxGeometry>
        </mxCell>
        <mxCell id="uT_rV1728aCFQ6Up8vHc-41" value="댓글 수정" style="rounded=1;whiteSpace=wrap;html=1;shadow=0;comic=0;labelBackgroundColor=none;strokeWidth=1;fontFamily=Verdana;fontSize=12;align=center;arcSize=50;" vertex="1" parent="1c1d494c118603dd-2">
          <mxGeometry x="52" y="439" width="83" height="30" as="geometry" />
        </mxCell>
        <mxCell id="uT_rV1728aCFQ6Up8vHc-42" value="" style="endArrow=classic;html=1;rounded=0;" edge="1" parent="1c1d494c118603dd-2">
          <mxGeometry width="50" height="50" relative="1" as="geometry">
            <mxPoint x="129" y="381" as="sourcePoint" />
            <mxPoint x="89" y="431" as="targetPoint" />
            <Array as="points">
              <mxPoint x="129" y="401" />
              <mxPoint x="89" y="401" />
            </Array>
          </mxGeometry>
        </mxCell>
        <mxCell id="uT_rV1728aCFQ6Up8vHc-49" value="" style="endArrow=classic;html=1;rounded=0;" edge="1" parent="1c1d494c118603dd-2">
          <mxGeometry width="50" height="50" relative="1" as="geometry">
            <mxPoint x="170" y="380" as="sourcePoint" />
            <mxPoint x="208.5" y="430" as="targetPoint" />
            <Array as="points">
              <mxPoint x="170" y="400" />
              <mxPoint x="208.5" y="400" />
            </Array>
          </mxGeometry>
        </mxCell>
        <mxCell id="uT_rV1728aCFQ6Up8vHc-66" value="댓글 삭제" style="rounded=1;whiteSpace=wrap;html=1;shadow=0;comic=0;labelBackgroundColor=none;strokeWidth=1;fontFamily=Verdana;fontSize=12;align=center;arcSize=50;" vertex="1" parent="1c1d494c118603dd-2">
          <mxGeometry x="165" y="439" width="83" height="30" as="geometry" />
        </mxCell>
        <mxCell id="uT_rV1728aCFQ6Up8vHc-68" value="대댓글 작성" style="rounded=1;whiteSpace=wrap;html=1;shadow=0;comic=0;labelBackgroundColor=none;strokeWidth=1;fontFamily=Verdana;fontSize=12;align=center;arcSize=50;" vertex="1" parent="1c1d494c118603dd-2">
          <mxGeometry x="108.5" y="510" width="83" height="30" as="geometry" />
        </mxCell>
        <mxCell id="uT_rV1728aCFQ6Up8vHc-70" value="" style="endArrow=classic;html=1;rounded=0;" edge="1" parent="1c1d494c118603dd-2">
          <mxGeometry width="50" height="50" relative="1" as="geometry">
            <mxPoint x="137.75" y="540" as="sourcePoint" />
            <mxPoint x="97.75" y="590" as="targetPoint" />
            <Array as="points">
              <mxPoint x="137.75" y="560" />
              <mxPoint x="97.75" y="560" />
            </Array>
          </mxGeometry>
        </mxCell>
        <mxCell id="uT_rV1728aCFQ6Up8vHc-71" value="대댓글 수정" style="rounded=1;whiteSpace=wrap;html=1;shadow=0;comic=0;labelBackgroundColor=none;strokeWidth=1;fontFamily=Verdana;fontSize=12;align=center;arcSize=50;" vertex="1" parent="1c1d494c118603dd-2">
          <mxGeometry x="58" y="597" width="83" height="30" as="geometry" />
        </mxCell>
        <mxCell id="uT_rV1728aCFQ6Up8vHc-73" value="" style="endArrow=classic;html=1;rounded=0;" edge="1" parent="1c1d494c118603dd-2">
          <mxGeometry width="50" height="50" relative="1" as="geometry">
            <mxPoint x="163.75" y="540" as="sourcePoint" />
            <mxPoint x="202.25" y="590" as="targetPoint" />
            <Array as="points">
              <mxPoint x="163.75" y="560" />
              <mxPoint x="202.25" y="560" />
            </Array>
          </mxGeometry>
        </mxCell>
        <mxCell id="uT_rV1728aCFQ6Up8vHc-74" value="대댓글 삭제" style="rounded=1;whiteSpace=wrap;html=1;shadow=0;comic=0;labelBackgroundColor=none;strokeWidth=1;fontFamily=Verdana;fontSize=12;align=center;arcSize=50;" vertex="1" parent="1c1d494c118603dd-2">
          <mxGeometry x="165" y="597" width="83" height="30" as="geometry" />
        </mxCell>
        <mxCell id="1c1d494c118603dd-3" value="Lane 2" style="swimlane;html=1;startSize=20;" parent="1c1d494c118603dd-1" vertex="1">
          <mxGeometry x="264.5" y="20" width="250" height="970" as="geometry" />
        </mxCell>
        <mxCell id="1c1d494c118603dd-11" value="댓글" style="rounded=1;whiteSpace=wrap;html=1;shadow=0;comic=0;labelBackgroundColor=none;strokeWidth=1;fontFamily=Verdana;fontSize=12;align=center;arcSize=0;" parent="1c1d494c118603dd-3" vertex="1">
          <mxGeometry x="66" y="140" width="94" height="30" as="geometry" />
        </mxCell>
        <mxCell id="1c1d494c118603dd-30" style="edgeStyle=orthogonalEdgeStyle;rounded=0;html=1;exitX=0.25;exitY=1;entryX=0.5;entryY=0;labelBackgroundColor=none;startArrow=none;startFill=0;startSize=5;endArrow=classicThin;endFill=1;endSize=5;jettySize=auto;orthogonalLoop=1;strokeWidth=1;fontFamily=Verdana;fontSize=12" parent="1c1d494c118603dd-3" edge="1">
          <mxGeometry relative="1" as="geometry">
            <Array as="points">
              <mxPoint x="91" y="170" />
              <mxPoint x="91" y="190" />
              <mxPoint x="-109" y="190" />
            </Array>
            <mxPoint x="67.75" y="169.9999999999999" as="sourcePoint" />
            <mxPoint x="-109" y="220" as="targetPoint" />
          </mxGeometry>
        </mxCell>
        <mxCell id="1c1d494c118603dd-4" value="Lane 3" style="swimlane;html=1;startSize=20;" parent="1c1d494c118603dd-1" vertex="1">
          <mxGeometry x="514.5" y="20" width="250" height="970" as="geometry" />
        </mxCell>
        <mxCell id="1c1d494c118603dd-13" value="아무고토모타쥬" style="rounded=0;whiteSpace=wrap;html=1;shadow=0;comic=0;labelBackgroundColor=none;strokeWidth=1;fontFamily=Verdana;fontSize=12;align=center;arcSize=50;" parent="1c1d494c118603dd-4" vertex="1">
          <mxGeometry x="21" y="290" width="156" height="40" as="geometry" />
        </mxCell>
        <mxCell id="uT_rV1728aCFQ6Up8vHc-2" value="비회원" style="rounded=0;whiteSpace=wrap;html=1;shadow=0;comic=0;labelBackgroundColor=none;strokeWidth=1;fontFamily=Verdana;fontSize=12;align=center;arcSize=50;" vertex="1" parent="1c1d494c118603dd-4">
          <mxGeometry x="28" y="210" width="142" height="30" as="geometry" />
        </mxCell>
        <mxCell id="1c1d494c118603dd-29" style="edgeStyle=orthogonalEdgeStyle;rounded=0;html=1;exitX=0.75;exitY=1;labelBackgroundColor=none;startArrow=none;startFill=0;startSize=5;endArrow=classicThin;endFill=1;endSize=5;jettySize=auto;orthogonalLoop=1;strokeWidth=1;fontFamily=Verdana;fontSize=12" parent="1c1d494c118603dd-1" edge="1">
          <mxGeometry relative="1" as="geometry">
            <Array as="points">
              <mxPoint x="390" y="210" />
              <mxPoint x="595" y="210" />
            </Array>
            <mxPoint x="390.25" y="189.9999999999999" as="sourcePoint" />
            <mxPoint x="595.0344827586207" y="228" as="targetPoint" />
          </mxGeometry>
        </mxCell>
      </root>
    </mxGraphModel>
  </diagram>
</mxfile>
